<mxfile host="app.diagrams.net" modified="2023-12-04T16:54:32.306Z" agent="Mozilla/5.0 (Windows NT 10.0; Win64; x64; rv:120.0) Gecko/20100101 Firefox/120.0" etag="5rVEI3MpiQjbSeWk6K31" version="22.1.5" type="device">
  <diagram id="R2lEEEUBdFMjLlhIrx00" name="Page-1">
    <mxGraphModel dx="2350" dy="730" grid="1" gridSize="10" guides="1" tooltips="1" connect="1" arrows="1" fold="1" page="1" pageScale="1" pageWidth="850" pageHeight="1100" math="0" shadow="0" extFonts="Permanent Marker^https://fonts.googleapis.com/css?family=Permanent+Marker">
      <root>
        <mxCell id="0" />
        <mxCell id="1" parent="0" />
        <mxCell id="akXxFOU8DNpJ8hJ18WZi-14" value="Mission" style="swimlane;fontStyle=0;childLayout=stackLayout;horizontal=1;startSize=26;horizontalStack=0;resizeParent=1;resizeParentMax=0;resizeLast=0;collapsible=1;marginBottom=0;align=center;fontSize=14;" parent="1" vertex="1">
          <mxGeometry x="150" y="370" width="210" height="510" as="geometry" />
        </mxCell>
        <mxCell id="akXxFOU8DNpJ8hJ18WZi-15" value="* Mission_ID : INT" style="text;strokeColor=none;fillColor=none;spacingLeft=4;spacingRight=4;overflow=hidden;rotatable=0;points=[[0,0.5],[1,0.5]];portConstraint=eastwest;fontSize=12;whiteSpace=wrap;html=1;" parent="akXxFOU8DNpJ8hJ18WZi-14" vertex="1">
          <mxGeometry y="26" width="210" height="30" as="geometry" />
        </mxCell>
        <mxCell id="akXxFOU8DNpJ8hJ18WZi-16" value="&lt;div&gt;# Vehicle_ID : INT&lt;br&gt;&lt;/div&gt;" style="text;strokeColor=none;fillColor=none;spacingLeft=4;spacingRight=4;overflow=hidden;rotatable=0;points=[[0,0.5],[1,0.5]];portConstraint=eastwest;fontSize=12;whiteSpace=wrap;html=1;" parent="akXxFOU8DNpJ8hJ18WZi-14" vertex="1">
          <mxGeometry y="56" width="210" height="30" as="geometry" />
        </mxCell>
        <mxCell id="dKVeqmf3rWd-lL4ULNfH-48" value="# Driver_ID : INT" style="text;strokeColor=none;fillColor=none;spacingLeft=4;spacingRight=4;overflow=hidden;rotatable=0;points=[[0,0.5],[1,0.5]];portConstraint=eastwest;fontSize=12;whiteSpace=wrap;html=1;" parent="akXxFOU8DNpJ8hJ18WZi-14" vertex="1">
          <mxGeometry y="86" width="210" height="30" as="geometry" />
        </mxCell>
        <mxCell id="dKVeqmf3rWd-lL4ULNfH-49" value="# Reservation_ID : INT" style="text;strokeColor=none;fillColor=none;spacingLeft=4;spacingRight=4;overflow=hidden;rotatable=0;points=[[0,0.5],[1,0.5]];portConstraint=eastwest;fontSize=12;whiteSpace=wrap;html=1;" parent="akXxFOU8DNpJ8hJ18WZi-14" vertex="1">
          <mxGeometry y="116" width="210" height="30" as="geometry" />
        </mxCell>
        <mxCell id="dKVeqmf3rWd-lL4ULNfH-61" value="&lt;div&gt;Start_Mission : DATETIME NOT NULL&lt;/div&gt;&lt;div&gt;&amp;nbsp;&amp;nbsp; CHECK (WEEKDAY(Start_Mission) &amp;lt; 5)&lt;br&gt;&lt;/div&gt;" style="text;strokeColor=none;fillColor=none;spacingLeft=4;spacingRight=4;overflow=hidden;rotatable=0;points=[[0,0.5],[1,0.5]];portConstraint=eastwest;fontSize=12;whiteSpace=wrap;html=1;" parent="akXxFOU8DNpJ8hJ18WZi-14" vertex="1">
          <mxGeometry y="146" width="210" height="44" as="geometry" />
        </mxCell>
        <mxCell id="dKVeqmf3rWd-lL4ULNfH-62" value="&lt;div&gt;End_Mission : DATETIME NOT NULL&lt;/div&gt;&lt;div&gt;&amp;nbsp;&amp;nbsp;&amp;nbsp; CHECK (WEEKDAY(End_Mission) &amp;lt; 5)&lt;br&gt;&lt;/div&gt;" style="text;strokeColor=none;fillColor=none;spacingLeft=4;spacingRight=4;overflow=hidden;rotatable=0;points=[[0,0.5],[1,0.5]];portConstraint=eastwest;fontSize=12;whiteSpace=wrap;html=1;" parent="akXxFOU8DNpJ8hJ18WZi-14" vertex="1">
          <mxGeometry y="190" width="210" height="50" as="geometry" />
        </mxCell>
        <mxCell id="S5_aVqYSwiM6wcFeoej1-1" value="Actual_Start_Mission : DATETIME" style="text;strokeColor=none;fillColor=none;spacingLeft=4;spacingRight=4;overflow=hidden;rotatable=0;points=[[0,0.5],[1,0.5]];portConstraint=eastwest;fontSize=12;whiteSpace=wrap;html=1;" parent="akXxFOU8DNpJ8hJ18WZi-14" vertex="1">
          <mxGeometry y="240" width="210" height="30" as="geometry" />
        </mxCell>
        <mxCell id="S5_aVqYSwiM6wcFeoej1-2" value="Actual_End_Mission : DATETIME" style="text;strokeColor=none;fillColor=none;spacingLeft=4;spacingRight=4;overflow=hidden;rotatable=0;points=[[0,0.5],[1,0.5]];portConstraint=eastwest;fontSize=12;whiteSpace=wrap;html=1;" parent="akXxFOU8DNpJ8hJ18WZi-14" vertex="1">
          <mxGeometry y="270" width="210" height="30" as="geometry" />
        </mxCell>
        <mxCell id="dKVeqmf3rWd-lL4ULNfH-63" value="Odometer_Start : INT" style="text;strokeColor=none;fillColor=none;spacingLeft=4;spacingRight=4;overflow=hidden;rotatable=0;points=[[0,0.5],[1,0.5]];portConstraint=eastwest;fontSize=12;whiteSpace=wrap;html=1;" parent="akXxFOU8DNpJ8hJ18WZi-14" vertex="1">
          <mxGeometry y="300" width="210" height="30" as="geometry" />
        </mxCell>
        <mxCell id="dKVeqmf3rWd-lL4ULNfH-64" value="Odometer_Return : INT" style="text;strokeColor=none;fillColor=none;spacingLeft=4;spacingRight=4;overflow=hidden;rotatable=0;points=[[0,0.5],[1,0.5]];portConstraint=eastwest;fontSize=12;whiteSpace=wrap;html=1;" parent="akXxFOU8DNpJ8hJ18WZi-14" vertex="1">
          <mxGeometry y="330" width="210" height="30" as="geometry" />
        </mxCell>
        <mxCell id="e5wr0-0nrNTTmGr7M1DS-4" value="CHECK (DATEDIFF(End_Mission, Start_Mission))" style="text;strokeColor=none;fillColor=none;spacingLeft=4;spacingRight=4;overflow=hidden;rotatable=0;points=[[0,0.5],[1,0.5]];portConstraint=eastwest;fontSize=12;whiteSpace=wrap;html=1;" vertex="1" parent="akXxFOU8DNpJ8hJ18WZi-14">
          <mxGeometry y="360" width="210" height="40" as="geometry" />
        </mxCell>
        <mxCell id="e5wr0-0nrNTTmGr7M1DS-5" value="CHECK (End_Mission &amp;gt; Start_Mission)" style="text;strokeColor=none;fillColor=none;spacingLeft=4;spacingRight=4;overflow=hidden;rotatable=0;points=[[0,0.5],[1,0.5]];portConstraint=eastwest;fontSize=12;whiteSpace=wrap;html=1;" vertex="1" parent="akXxFOU8DNpJ8hJ18WZi-14">
          <mxGeometry y="400" width="210" height="40" as="geometry" />
        </mxCell>
        <mxCell id="e5wr0-0nrNTTmGr7M1DS-6" value="CHECK ((Actual_Mission_Start IS NULL) OR (Actual_Mission_End IS NULL) OR (Actual_Mission_Start &amp;lt; Actual_Mission_End)) " style="text;strokeColor=none;fillColor=none;spacingLeft=4;spacingRight=4;overflow=hidden;rotatable=0;points=[[0,0.5],[1,0.5]];portConstraint=eastwest;fontSize=12;whiteSpace=wrap;html=1;" vertex="1" parent="akXxFOU8DNpJ8hJ18WZi-14">
          <mxGeometry y="440" width="210" height="70" as="geometry" />
        </mxCell>
        <mxCell id="akXxFOU8DNpJ8hJ18WZi-25" value="Driver" style="swimlane;fontStyle=0;childLayout=stackLayout;horizontal=1;startSize=26;horizontalStack=0;resizeParent=1;resizeParentMax=0;resizeLast=0;collapsible=1;marginBottom=0;align=center;fontSize=14;" parent="1" vertex="1">
          <mxGeometry x="-201" y="340" width="230" height="170" as="geometry" />
        </mxCell>
        <mxCell id="akXxFOU8DNpJ8hJ18WZi-26" value="* Driver_ID : INT" style="text;strokeColor=none;fillColor=none;spacingLeft=4;spacingRight=4;overflow=hidden;rotatable=0;points=[[0,0.5],[1,0.5]];portConstraint=eastwest;fontSize=12;whiteSpace=wrap;html=1;" parent="akXxFOU8DNpJ8hJ18WZi-25" vertex="1">
          <mxGeometry y="26" width="230" height="30" as="geometry" />
        </mxCell>
        <mxCell id="oXsoJv8cmBUGQ4QZ2bJ9-38" value="First_Name : VARCHAR(255)" style="text;strokeColor=none;fillColor=none;spacingLeft=4;spacingRight=4;overflow=hidden;rotatable=0;points=[[0,0.5],[1,0.5]];portConstraint=eastwest;fontSize=12;whiteSpace=wrap;html=1;" parent="akXxFOU8DNpJ8hJ18WZi-25" vertex="1">
          <mxGeometry y="56" width="230" height="30" as="geometry" />
        </mxCell>
        <mxCell id="oXsoJv8cmBUGQ4QZ2bJ9-39" value="Last_Name : VARCHAR(255)" style="text;strokeColor=none;fillColor=none;spacingLeft=4;spacingRight=4;overflow=hidden;rotatable=0;points=[[0,0.5],[1,0.5]];portConstraint=eastwest;fontSize=12;whiteSpace=wrap;html=1;" parent="akXxFOU8DNpJ8hJ18WZi-25" vertex="1">
          <mxGeometry y="86" width="230" height="30" as="geometry" />
        </mxCell>
        <mxCell id="oXsoJv8cmBUGQ4QZ2bJ9-40" value="&lt;div&gt;License_Type : INT NOT NULL&lt;br&gt;&lt;/div&gt;&lt;div&gt;&amp;nbsp;&amp;nbsp;&amp;nbsp; CHECK (Licence_Type IN (1, 3, 5)&lt;br&gt;&lt;/div&gt;" style="text;strokeColor=none;fillColor=none;spacingLeft=4;spacingRight=4;overflow=hidden;rotatable=0;points=[[0,0.5],[1,0.5]];portConstraint=eastwest;fontSize=12;whiteSpace=wrap;html=1;" parent="akXxFOU8DNpJ8hJ18WZi-25" vertex="1">
          <mxGeometry y="116" width="230" height="54" as="geometry" />
        </mxCell>
        <mxCell id="akXxFOU8DNpJ8hJ18WZi-30" value="Client" style="swimlane;fontStyle=0;childLayout=stackLayout;horizontal=1;startSize=26;horizontalStack=0;resizeParent=1;resizeParentMax=0;resizeLast=0;collapsible=1;marginBottom=0;align=center;fontSize=14;" parent="1" vertex="1">
          <mxGeometry x="-540" y="550" width="220" height="160" as="geometry" />
        </mxCell>
        <mxCell id="akXxFOU8DNpJ8hJ18WZi-31" value="* Client_ID : INT" style="text;strokeColor=none;fillColor=none;spacingLeft=4;spacingRight=4;overflow=hidden;rotatable=0;points=[[0,0.5],[1,0.5]];portConstraint=eastwest;fontSize=12;whiteSpace=wrap;html=1;" parent="akXxFOU8DNpJ8hJ18WZi-30" vertex="1">
          <mxGeometry y="26" width="220" height="30" as="geometry" />
        </mxCell>
        <mxCell id="oXsoJv8cmBUGQ4QZ2bJ9-37" value="Address : VARCHAR(255)" style="text;strokeColor=none;fillColor=none;spacingLeft=4;spacingRight=4;overflow=hidden;rotatable=0;points=[[0,0.5],[1,0.5]];portConstraint=eastwest;fontSize=12;whiteSpace=wrap;html=1;" parent="akXxFOU8DNpJ8hJ18WZi-30" vertex="1">
          <mxGeometry y="56" width="220" height="30" as="geometry" />
        </mxCell>
        <mxCell id="e5wr0-0nrNTTmGr7M1DS-2" value="Client_Name : VARCHAR(255)" style="text;strokeColor=none;fillColor=none;spacingLeft=4;spacingRight=4;overflow=hidden;rotatable=0;points=[[0,0.5],[1,0.5]];portConstraint=eastwest;fontSize=12;whiteSpace=wrap;html=1;" vertex="1" parent="akXxFOU8DNpJ8hJ18WZi-30">
          <mxGeometry y="86" width="220" height="30" as="geometry" />
        </mxCell>
        <mxCell id="oXsoJv8cmBUGQ4QZ2bJ9-26" value="Client_Type : ENUM(&quot;Business&quot;, &quot;Person&quot;) NOT NULL" style="text;strokeColor=none;fillColor=none;spacingLeft=4;spacingRight=4;overflow=hidden;rotatable=0;points=[[0,0.5],[1,0.5]];portConstraint=eastwest;fontSize=12;whiteSpace=wrap;html=1;" parent="akXxFOU8DNpJ8hJ18WZi-30" vertex="1">
          <mxGeometry y="116" width="220" height="44" as="geometry" />
        </mxCell>
        <mxCell id="HXT0rlTHmQGawke6wT0S-26" value="Line Order" style="swimlane;fontStyle=0;childLayout=stackLayout;horizontal=1;startSize=26;horizontalStack=0;resizeParent=1;resizeParentMax=0;resizeLast=0;collapsible=1;marginBottom=0;align=center;fontSize=14;" parent="1" vertex="1">
          <mxGeometry x="-100" y="215" width="160" height="86" as="geometry" />
        </mxCell>
        <mxCell id="HXT0rlTHmQGawke6wT0S-27" value="* # Mission_ID : INT" style="text;strokeColor=none;fillColor=none;spacingLeft=4;spacingRight=4;overflow=hidden;rotatable=0;points=[[0,0.5],[1,0.5]];portConstraint=eastwest;fontSize=12;whiteSpace=wrap;html=1;" parent="HXT0rlTHmQGawke6wT0S-26" vertex="1">
          <mxGeometry y="26" width="160" height="30" as="geometry" />
        </mxCell>
        <mxCell id="HXT0rlTHmQGawke6wT0S-28" value="* # Invoice_ID : INT" style="text;strokeColor=none;fillColor=none;spacingLeft=4;spacingRight=4;overflow=hidden;rotatable=0;points=[[0,0.5],[1,0.5]];portConstraint=eastwest;fontSize=12;whiteSpace=wrap;html=1;" parent="HXT0rlTHmQGawke6wT0S-26" vertex="1">
          <mxGeometry y="56" width="160" height="30" as="geometry" />
        </mxCell>
        <mxCell id="HXT0rlTHmQGawke6wT0S-30" value="Invoice" style="swimlane;fontStyle=0;childLayout=stackLayout;horizontal=1;startSize=26;horizontalStack=0;resizeParent=1;resizeParentMax=0;resizeLast=0;collapsible=1;marginBottom=0;align=center;fontSize=14;" parent="1" vertex="1">
          <mxGeometry x="-460" y="215" width="240" height="150" as="geometry" />
        </mxCell>
        <mxCell id="HXT0rlTHmQGawke6wT0S-31" value="* Invoice_ID : INT" style="text;strokeColor=none;fillColor=none;spacingLeft=4;spacingRight=4;overflow=hidden;rotatable=0;points=[[0,0.5],[1,0.5]];portConstraint=eastwest;fontSize=12;whiteSpace=wrap;html=1;" parent="HXT0rlTHmQGawke6wT0S-30" vertex="1">
          <mxGeometry y="26" width="240" height="30" as="geometry" />
        </mxCell>
        <mxCell id="dKVeqmf3rWd-lL4ULNfH-33" value="# Tax_id : INT NOT NULL" style="text;strokeColor=none;fillColor=none;spacingLeft=4;spacingRight=4;overflow=hidden;rotatable=0;points=[[0,0.5],[1,0.5]];portConstraint=eastwest;fontSize=12;whiteSpace=wrap;html=1;" parent="HXT0rlTHmQGawke6wT0S-30" vertex="1">
          <mxGeometry y="56" width="240" height="30" as="geometry" />
        </mxCell>
        <mxCell id="HXT0rlTHmQGawke6wT0S-32" value="Payment_Type : ENUM (&quot;Credit_Card&quot;, &lt;span style=&quot;white-space: pre;&quot;&gt;&#x9;&lt;/span&gt;&quot;Cash&quot;, &quot;Check&quot;) NOT NULL" style="text;strokeColor=none;fillColor=none;spacingLeft=4;spacingRight=4;overflow=hidden;rotatable=0;points=[[0,0.5],[1,0.5]];portConstraint=eastwest;fontSize=12;whiteSpace=wrap;html=1;" parent="HXT0rlTHmQGawke6wT0S-30" vertex="1">
          <mxGeometry y="86" width="240" height="30" as="geometry" />
        </mxCell>
        <mxCell id="HXT0rlTHmQGawke6wT0S-33" value="isPaid : Boolean NOT NULL" style="text;strokeColor=none;fillColor=none;spacingLeft=4;spacingRight=4;overflow=hidden;rotatable=0;points=[[0,0.5],[1,0.5]];portConstraint=eastwest;fontSize=12;whiteSpace=wrap;html=1;" parent="HXT0rlTHmQGawke6wT0S-30" vertex="1">
          <mxGeometry y="116" width="240" height="34" as="geometry" />
        </mxCell>
        <mxCell id="HXT0rlTHmQGawke6wT0S-34" value="" style="fontSize=12;html=1;endArrow=ERoneToMany;rounded=0;exitX=0.5;exitY=0;exitDx=0;exitDy=0;entryX=1;entryY=0.5;entryDx=0;entryDy=0;" parent="1" source="akXxFOU8DNpJ8hJ18WZi-14" target="HXT0rlTHmQGawke6wT0S-27" edge="1">
          <mxGeometry width="100" height="100" relative="1" as="geometry">
            <mxPoint x="230" y="300" as="sourcePoint" />
            <mxPoint x="100" y="280" as="targetPoint" />
            <Array as="points">
              <mxPoint x="255" y="256" />
            </Array>
          </mxGeometry>
        </mxCell>
        <mxCell id="HXT0rlTHmQGawke6wT0S-35" value="" style="fontSize=12;html=1;endArrow=ERoneToMany;rounded=0;exitX=1;exitY=0.5;exitDx=0;exitDy=0;entryX=0;entryY=0.5;entryDx=0;entryDy=0;" parent="1" source="HXT0rlTHmQGawke6wT0S-31" target="HXT0rlTHmQGawke6wT0S-27" edge="1">
          <mxGeometry width="100" height="100" relative="1" as="geometry">
            <mxPoint x="-120" y="330" as="sourcePoint" />
            <mxPoint x="-120" y="208" as="targetPoint" />
          </mxGeometry>
        </mxCell>
        <mxCell id="HXT0rlTHmQGawke6wT0S-40" value="Reservation" style="swimlane;fontStyle=0;childLayout=stackLayout;horizontal=1;startSize=26;horizontalStack=0;resizeParent=1;resizeParentMax=0;resizeLast=0;collapsible=1;marginBottom=0;align=center;fontSize=14;" parent="1" vertex="1">
          <mxGeometry x="-201" y="522" width="230" height="270" as="geometry" />
        </mxCell>
        <mxCell id="dKVeqmf3rWd-lL4ULNfH-50" value="* Reservation_ID : INT" style="text;strokeColor=none;fillColor=none;spacingLeft=4;spacingRight=4;overflow=hidden;rotatable=0;points=[[0,0.5],[1,0.5]];portConstraint=eastwest;fontSize=12;whiteSpace=wrap;html=1;" parent="HXT0rlTHmQGawke6wT0S-40" vertex="1">
          <mxGeometry y="26" width="230" height="30" as="geometry" />
        </mxCell>
        <mxCell id="HXT0rlTHmQGawke6wT0S-41" value="# Client_ID : INT NOT NULL" style="text;strokeColor=none;fillColor=none;spacingLeft=4;spacingRight=4;overflow=hidden;rotatable=0;points=[[0,0.5],[1,0.5]];portConstraint=eastwest;fontSize=12;whiteSpace=wrap;html=1;" parent="HXT0rlTHmQGawke6wT0S-40" vertex="1">
          <mxGeometry y="56" width="230" height="30" as="geometry" />
        </mxCell>
        <mxCell id="HXT0rlTHmQGawke6wT0S-42" value="Requested_Vehicle_Type : ENUM (&#39;Heavyweight&#39;, &#39;Tourist&#39;, &#39;SuperHeavyweight&#39;) NOT NULL" style="text;strokeColor=none;fillColor=none;spacingLeft=4;spacingRight=4;overflow=hidden;rotatable=0;points=[[0,0.5],[1,0.5]];portConstraint=eastwest;fontSize=12;whiteSpace=wrap;html=1;" parent="HXT0rlTHmQGawke6wT0S-40" vertex="1">
          <mxGeometry y="86" width="230" height="54" as="geometry" />
        </mxCell>
        <mxCell id="HXT0rlTHmQGawke6wT0S-43" value="&lt;div&gt;Location : VARCHAR(255) NOT NULL&lt;br&gt;&lt;/div&gt;&lt;div&gt;&lt;br&gt;&lt;/div&gt;&lt;div&gt;Appointment_Date : DATETIME NOT NULL&lt;br&gt;&lt;/div&gt;&lt;div&gt;&lt;br&gt;&lt;/div&gt;&lt;div&gt;Reservation_Length : INT NOT NULL&lt;br&gt;&lt;/div&gt;&lt;div&gt;&amp;nbsp;&amp;nbsp;&amp;nbsp; CHECK (Reservation_Length &amp;gt;= 0 AND Reservation_Length &amp;lt;= 365)&lt;br&gt;&lt;/div&gt;&lt;div&gt;&lt;br&gt;&lt;/div&gt;&lt;div&gt;&lt;br&gt;&lt;/div&gt;" style="text;strokeColor=none;fillColor=none;spacingLeft=4;spacingRight=4;overflow=hidden;rotatable=0;points=[[0,0.5],[1,0.5]];portConstraint=eastwest;fontSize=12;whiteSpace=wrap;html=1;" parent="HXT0rlTHmQGawke6wT0S-40" vertex="1">
          <mxGeometry y="140" width="230" height="130" as="geometry" />
        </mxCell>
        <mxCell id="9CHubEAWElx0CJi55Ytn-6" value="Tax" style="swimlane;fontStyle=0;childLayout=stackLayout;horizontal=1;startSize=26;horizontalStack=0;resizeParent=1;resizeParentMax=0;resizeLast=0;collapsible=1;marginBottom=0;align=center;fontSize=14;" parent="1" vertex="1">
          <mxGeometry x="-465" y="397" width="235" height="116" as="geometry" />
        </mxCell>
        <mxCell id="9CHubEAWElx0CJi55Ytn-7" value="* Tax_id : INT" style="text;strokeColor=none;fillColor=none;spacingLeft=4;spacingRight=4;overflow=hidden;rotatable=0;points=[[0,0.5],[1,0.5]];portConstraint=eastwest;fontSize=12;whiteSpace=wrap;html=1;" parent="9CHubEAWElx0CJi55Ytn-6" vertex="1">
          <mxGeometry y="26" width="235" height="30" as="geometry" />
        </mxCell>
        <mxCell id="9CHubEAWElx0CJi55Ytn-8" value="Federal_tax : DECIMAL (4, 2) NOT NULL" style="text;strokeColor=none;fillColor=none;spacingLeft=4;spacingRight=4;overflow=hidden;rotatable=0;points=[[0,0.5],[1,0.5]];portConstraint=eastwest;fontSize=12;whiteSpace=wrap;html=1;" parent="9CHubEAWElx0CJi55Ytn-6" vertex="1">
          <mxGeometry y="56" width="235" height="30" as="geometry" />
        </mxCell>
        <mxCell id="9CHubEAWElx0CJi55Ytn-9" value="Provincial_tax : DECIMAL (4, 2) NOT NULL" style="text;strokeColor=none;fillColor=none;spacingLeft=4;spacingRight=4;overflow=hidden;rotatable=0;points=[[0,0.5],[1,0.5]];portConstraint=eastwest;fontSize=12;whiteSpace=wrap;html=1;" parent="9CHubEAWElx0CJi55Ytn-6" vertex="1">
          <mxGeometry y="86" width="235" height="30" as="geometry" />
        </mxCell>
        <mxCell id="9CHubEAWElx0CJi55Ytn-10" value="" style="fontSize=12;html=1;endArrow=ERoneToMany;rounded=0;exitX=0;exitY=0.5;exitDx=0;exitDy=0;entryX=0;entryY=0.5;entryDx=0;entryDy=0;" parent="1" source="9CHubEAWElx0CJi55Ytn-7" target="dKVeqmf3rWd-lL4ULNfH-33" edge="1">
          <mxGeometry width="100" height="100" relative="1" as="geometry">
            <mxPoint x="-340" y="400" as="sourcePoint" />
            <mxPoint x="-550" y="290" as="targetPoint" />
            <Array as="points">
              <mxPoint x="-550" y="438" />
              <mxPoint x="-550" y="286" />
            </Array>
          </mxGeometry>
        </mxCell>
        <mxCell id="dKVeqmf3rWd-lL4ULNfH-1" value="1" style="text;html=1;strokeColor=none;fillColor=none;align=center;verticalAlign=middle;whiteSpace=wrap;rounded=0;" parent="1" vertex="1">
          <mxGeometry x="10" y="395" width="60" height="30" as="geometry" />
        </mxCell>
        <mxCell id="dKVeqmf3rWd-lL4ULNfH-2" value="N" style="text;html=1;strokeColor=none;fillColor=none;align=center;verticalAlign=middle;whiteSpace=wrap;rounded=0;" parent="1" vertex="1">
          <mxGeometry x="100" y="440" width="60" height="30" as="geometry" />
        </mxCell>
        <mxCell id="dKVeqmf3rWd-lL4ULNfH-9" value="" style="fontSize=12;html=1;endArrow=ERoneToMany;rounded=0;entryX=0.99;entryY=0.156;entryDx=0;entryDy=0;entryPerimeter=0;exitX=-0.006;exitY=0.156;exitDx=0;exitDy=0;exitPerimeter=0;" parent="1" source="dKVeqmf3rWd-lL4ULNfH-16" target="akXxFOU8DNpJ8hJ18WZi-16" edge="1">
          <mxGeometry width="100" height="100" relative="1" as="geometry">
            <mxPoint x="370" y="431" as="sourcePoint" />
            <mxPoint x="320" y="436" as="targetPoint" />
            <Array as="points" />
          </mxGeometry>
        </mxCell>
        <mxCell id="dKVeqmf3rWd-lL4ULNfH-14" value="Vehicle" style="swimlane;fontStyle=0;childLayout=stackLayout;horizontal=1;startSize=26;horizontalStack=0;resizeParent=1;resizeParentMax=0;resizeLast=0;collapsible=1;marginBottom=0;align=center;fontSize=14;" parent="1" vertex="1">
          <mxGeometry x="457" y="370" width="270" height="190" as="geometry" />
        </mxCell>
        <mxCell id="dKVeqmf3rWd-lL4ULNfH-15" value="* Vehicle_ID : INT" style="text;strokeColor=none;fillColor=none;spacingLeft=4;spacingRight=4;overflow=hidden;rotatable=0;points=[[0,0.5],[1,0.5]];portConstraint=eastwest;fontSize=12;whiteSpace=wrap;html=1;" parent="dKVeqmf3rWd-lL4ULNfH-14" vertex="1">
          <mxGeometry y="26" width="270" height="30" as="geometry" />
        </mxCell>
        <mxCell id="dKVeqmf3rWd-lL4ULNfH-16" value="Brand_Name : VARHCAR(255)" style="text;strokeColor=none;fillColor=none;spacingLeft=4;spacingRight=4;overflow=hidden;rotatable=0;points=[[0,0.5],[1,0.5]];portConstraint=eastwest;fontSize=12;whiteSpace=wrap;html=1;" parent="dKVeqmf3rWd-lL4ULNfH-14" vertex="1">
          <mxGeometry y="56" width="270" height="30" as="geometry" />
        </mxCell>
        <mxCell id="dKVeqmf3rWd-lL4ULNfH-17" value="&lt;div&gt;Hourly_Rate : DECIMAL(5, 2) NOT NULL&lt;br&gt;&lt;/div&gt;&lt;div&gt;&lt;br&gt;&lt;/div&gt;&lt;div&gt;Kilometer_Rate : DECIMAL(5, 2) NOT NULL&lt;/div&gt;" style="text;strokeColor=none;fillColor=none;spacingLeft=4;spacingRight=4;overflow=hidden;rotatable=0;points=[[0,0.5],[1,0.5]];portConstraint=eastwest;fontSize=12;whiteSpace=wrap;html=1;" parent="dKVeqmf3rWd-lL4ULNfH-14" vertex="1">
          <mxGeometry y="86" width="270" height="54" as="geometry" />
        </mxCell>
        <mxCell id="cnez0KZvqOnVUFTonsYX-17" value="Vehicle_Type : ENUM (&#39;Heavyweight&#39;, &#39;Tourist&#39;, &#39;SuperHeavyweight&#39;) NOT NULL" style="text;strokeColor=none;fillColor=none;spacingLeft=4;spacingRight=4;overflow=hidden;rotatable=0;points=[[0,0.5],[1,0.5]];portConstraint=eastwest;fontSize=12;whiteSpace=wrap;html=1;" parent="dKVeqmf3rWd-lL4ULNfH-14" vertex="1">
          <mxGeometry y="140" width="270" height="50" as="geometry" />
        </mxCell>
        <mxCell id="dKVeqmf3rWd-lL4ULNfH-20" value="N" style="text;html=1;strokeColor=none;fillColor=none;align=center;verticalAlign=middle;whiteSpace=wrap;rounded=0;" parent="1" vertex="1">
          <mxGeometry x="350" y="390" width="60" height="40" as="geometry" />
        </mxCell>
        <mxCell id="dKVeqmf3rWd-lL4ULNfH-21" value="1" style="text;html=1;strokeColor=none;fillColor=none;align=center;verticalAlign=middle;whiteSpace=wrap;rounded=0;" parent="1" vertex="1">
          <mxGeometry x="397" y="395" width="60" height="30" as="geometry" />
        </mxCell>
        <mxCell id="dKVeqmf3rWd-lL4ULNfH-23" value="1" style="text;html=1;strokeColor=none;fillColor=none;align=center;verticalAlign=middle;whiteSpace=wrap;rounded=0;" parent="1" vertex="1">
          <mxGeometry x="200" y="340" width="60" height="30" as="geometry" />
        </mxCell>
        <mxCell id="dKVeqmf3rWd-lL4ULNfH-24" value="N" style="text;html=1;strokeColor=none;fillColor=none;align=center;verticalAlign=middle;whiteSpace=wrap;rounded=0;" parent="1" vertex="1">
          <mxGeometry x="50" y="230" width="60" height="30" as="geometry" />
        </mxCell>
        <mxCell id="dKVeqmf3rWd-lL4ULNfH-28" value="N" style="text;html=1;strokeColor=none;fillColor=none;align=center;verticalAlign=middle;whiteSpace=wrap;rounded=0;" parent="1" vertex="1">
          <mxGeometry x="-145" y="260" width="60" height="30" as="geometry" />
        </mxCell>
        <mxCell id="dKVeqmf3rWd-lL4ULNfH-30" value="1" style="text;html=1;strokeColor=none;fillColor=none;align=center;verticalAlign=middle;whiteSpace=wrap;rounded=0;" parent="1" vertex="1">
          <mxGeometry x="-230" y="260" width="60" height="30" as="geometry" />
        </mxCell>
        <mxCell id="dKVeqmf3rWd-lL4ULNfH-34" value="N" style="text;html=1;strokeColor=none;fillColor=none;align=center;verticalAlign=middle;whiteSpace=wrap;rounded=0;" parent="1" vertex="1">
          <mxGeometry x="-510" y="260" width="60" height="30" as="geometry" />
        </mxCell>
        <mxCell id="dKVeqmf3rWd-lL4ULNfH-40" value="1" style="text;html=1;strokeColor=none;fillColor=none;align=center;verticalAlign=middle;whiteSpace=wrap;rounded=0;" parent="1" vertex="1">
          <mxGeometry x="-520" y="440" width="60" height="30" as="geometry" />
        </mxCell>
        <mxCell id="dKVeqmf3rWd-lL4ULNfH-51" value="" style="fontSize=12;html=1;endArrow=ERoneToMany;rounded=0;exitX=1;exitY=0.5;exitDx=0;exitDy=0;entryX=0;entryY=0.5;entryDx=0;entryDy=0;" parent="1" source="dKVeqmf3rWd-lL4ULNfH-50" target="dKVeqmf3rWd-lL4ULNfH-49" edge="1">
          <mxGeometry width="100" height="100" relative="1" as="geometry">
            <mxPoint x="171" y="660" as="sourcePoint" />
            <mxPoint x="80" y="570" as="targetPoint" />
            <Array as="points">
              <mxPoint x="80" y="563" />
              <mxPoint x="80" y="501" />
            </Array>
          </mxGeometry>
        </mxCell>
        <mxCell id="dKVeqmf3rWd-lL4ULNfH-52" value="1" style="text;html=1;strokeColor=none;fillColor=none;align=center;verticalAlign=middle;whiteSpace=wrap;rounded=0;" parent="1" vertex="1">
          <mxGeometry x="10" y="530" width="60" height="30" as="geometry" />
        </mxCell>
        <mxCell id="dKVeqmf3rWd-lL4ULNfH-55" value="N" style="text;html=1;strokeColor=none;fillColor=none;align=center;verticalAlign=middle;whiteSpace=wrap;rounded=0;" parent="1" vertex="1">
          <mxGeometry x="100" y="500" width="60" height="30" as="geometry" />
        </mxCell>
        <mxCell id="dKVeqmf3rWd-lL4ULNfH-58" value="" style="fontSize=12;html=1;endArrow=ERoneToMany;rounded=0;entryX=-0.019;entryY=0.767;entryDx=0;entryDy=0;entryPerimeter=0;exitX=1.031;exitY=-0.166;exitDx=0;exitDy=0;exitPerimeter=0;" parent="1" source="oXsoJv8cmBUGQ4QZ2bJ9-37" target="HXT0rlTHmQGawke6wT0S-41" edge="1">
          <mxGeometry width="100" height="100" relative="1" as="geometry">
            <mxPoint x="-320" y="600" as="sourcePoint" />
            <mxPoint x="-210" y="600" as="targetPoint" />
          </mxGeometry>
        </mxCell>
        <mxCell id="dKVeqmf3rWd-lL4ULNfH-67" value="1" style="text;html=1;strokeColor=none;fillColor=none;align=center;verticalAlign=middle;whiteSpace=wrap;rounded=0;" parent="1" vertex="1">
          <mxGeometry x="-335" y="570" width="60" height="30" as="geometry" />
        </mxCell>
        <mxCell id="dKVeqmf3rWd-lL4ULNfH-68" value="N" style="text;html=1;strokeColor=none;fillColor=none;align=center;verticalAlign=middle;whiteSpace=wrap;rounded=0;" parent="1" vertex="1">
          <mxGeometry x="-250" y="570" width="60" height="30" as="geometry" />
        </mxCell>
        <mxCell id="oXsoJv8cmBUGQ4QZ2bJ9-44" value="" style="fontSize=12;html=1;endArrow=ERoneToMany;rounded=0;exitX=1;exitY=0.5;exitDx=0;exitDy=0;entryX=0;entryY=0.5;entryDx=0;entryDy=0;" parent="1" source="akXxFOU8DNpJ8hJ18WZi-26" target="dKVeqmf3rWd-lL4ULNfH-48" edge="1">
          <mxGeometry width="100" height="100" relative="1" as="geometry">
            <mxPoint x="-80" y="412" as="sourcePoint" />
            <mxPoint x="130" y="460" as="targetPoint" />
            <Array as="points">
              <mxPoint x="90" y="381" />
              <mxPoint x="90" y="470" />
            </Array>
          </mxGeometry>
        </mxCell>
      </root>
    </mxGraphModel>
  </diagram>
</mxfile>
